<svg id="Calque_1" data-name="Calque 1" xmlns="http://www.w3.org/2000/svg" viewBox="0 0 303.18 422.55"><defs><style>.cls-1{fill:#e8e8e8;}</style></defs><title>My_infra_logo</title><text x="39.68"/><path class="cls-1" d="M36.41,311.41q1.31-.35,3.42-0.78a28,28,0,0,1,5.45-.43q4.44,0,6.43,2.48,0.23-.17.88-0.59a12.73,12.73,0,0,1,1.65-.85,13.24,13.24,0,0,1,2.33-.74,13.38,13.38,0,0,1,3-.3,10.44,10.44,0,0,1,4.32.76,6,6,0,0,1,2.56,2.13,8.35,8.35,0,0,1,1.22,3.28,25.63,25.63,0,0,1,.32,4.17v12.55H65V321.44a31.47,31.47,0,0,0-.2-3.84,7.19,7.19,0,0,0-.81-2.69,3.92,3.92,0,0,0-1.74-1.61,6.84,6.84,0,0,0-2.94-.54,11.84,11.84,0,0,0-2.47.24,10.78,10.78,0,0,0-1.92.59,8.31,8.31,0,0,0-1.34.7q-0.52.35-.75,0.52a13,13,0,0,1,.61,2.54,20.84,20.84,0,0,1,.2,3v12.77H50.71V321.44a31.47,31.47,0,0,0-.2-3.84,6.92,6.92,0,0,0-.84-2.69,4,4,0,0,0-1.79-1.61,7.26,7.26,0,0,0-3.06-.54,25.16,25.16,0,0,0-3.6.22,9.83,9.83,0,0,0-1.88.39v19.72H36.41V311.41Z" transform="translate(39.68)"/><path class="cls-1" d="M81.86,333.56Q80.38,330.9,79,328t-2.59-5.79q-1.2-2.93-2.2-5.86t-1.72-5.76h3.12q0.5,2.09,1.27,4.5t1.74,5q1,2.56,2.15,5.26t2.57,5.3q1-2.68,1.79-5.07t1.44-4.75q0.66-2.36,1.28-4.84t1.26-5.36H92q-1.47,6.3-3.31,12.26a100.25,100.25,0,0,1-4,10.89,24.4,24.4,0,0,1-1.77,3.37,9.9,9.9,0,0,1-2,2.32,7.29,7.29,0,0,1-2.59,1.35,12.44,12.44,0,0,1-3.48.43,7.64,7.64,0,0,1-2.07-.26,6.64,6.64,0,0,1-1.16-.39l0.59-2.34a4.39,4.39,0,0,0,1,.37,6.36,6.36,0,0,0,1.75.24,9.32,9.32,0,0,0,2.29-.26,5,5,0,0,0,1.84-.89,6.64,6.64,0,0,0,1.47-1.63A14.37,14.37,0,0,0,81.86,333.56Z" transform="translate(39.68)"/><path class="cls-1" d="M19,338.4A8.33,8.33,0,0,1,16.21,345a9.78,9.78,0,0,1-6.64,2.45A9.94,9.94,0,0,1,2.81,345,8.33,8.33,0,0,1,0,338.4a8.47,8.47,0,0,1,2.81-6.74,9.94,9.94,0,0,1,6.77-2.45,9.78,9.78,0,0,1,6.64,2.45A8.48,8.48,0,0,1,19,338.4Zm-1.66,82.8H1.92V357.14H17.36V421.2Z" transform="translate(39.68)"/><path class="cls-1" d="M37,359.23a107.64,107.64,0,0,1,11.62-2.33,104.41,104.41,0,0,1,15.83-1.1,37.8,37.8,0,0,1,13.66,2.14,21.32,21.32,0,0,1,8.75,6,22.53,22.53,0,0,1,4.6,9.31,50,50,0,0,1,1.34,11.94v36H77.36V387.52a46.89,46.89,0,0,0-.7-8.75,15.16,15.16,0,0,0-2.3-5.88A9.14,9.14,0,0,0,70,369.58a19,19,0,0,0-6.7-1,53.4,53.4,0,0,0-6.13.37q-3.19.37-4.72,0.61V421.2H37v-62Z" transform="translate(39.68)"/><path class="cls-1" d="M138.9,326.16a43.45,43.45,0,0,1,9.45.92,54.86,54.86,0,0,1,6.13,1.65L151.54,341a25.05,25.05,0,0,0-5-1.59,29.66,29.66,0,0,0-6.19-.61,16.59,16.59,0,0,0-6.26,1,10.24,10.24,0,0,0-4.08,2.88,10.86,10.86,0,0,0-2.17,4.47,24,24,0,0,0-.64,5.69v4.29h24.26v12.37H127.15V421.2H111.71V352.61q0-12.37,6.77-19.41T138.9,326.16Z" transform="translate(39.68)"/><path class="cls-1" d="M200.82,370.49a52.4,52.4,0,0,0-5.3-1.29,40.61,40.61,0,0,0-7.85-.67,32.41,32.41,0,0,0-5.43.49,33.48,33.48,0,0,0-4,.86V421.2H162.77v-61a87.67,87.67,0,0,1,11.17-3,72.4,72.4,0,0,1,14.87-1.41q1.53,0,3.57.18t4.08,0.49q2,0.31,4,.74c1.27,0.29,2.3.55,3.06,0.79Z" transform="translate(39.68)"/><path class="cls-1" d="M236.44,355.55a39.24,39.24,0,0,1,12.89,1.84,20.71,20.71,0,0,1,8.36,5.14,19.06,19.06,0,0,1,4.47,8,37.77,37.77,0,0,1,1.34,10.35v38.83q-3.57.73-10.79,1.77a114.7,114.7,0,0,1-16.28,1,50.84,50.84,0,0,1-11-1.1,23.54,23.54,0,0,1-8.49-3.55,16.93,16.93,0,0,1-5.49-6.37,21.32,21.32,0,0,1-2-9.68,18,18,0,0,1,2.23-9.31,17.85,17.85,0,0,1,6.06-6.19,26.9,26.9,0,0,1,8.87-3.43,51.92,51.92,0,0,1,10.53-1,49.94,49.94,0,0,1,5.36.31,52,52,0,0,1,6,1v-2.45a18.58,18.58,0,0,0-.64-4.9,10.11,10.11,0,0,0-2.23-4.1,10.55,10.55,0,0,0-4.21-2.75,19,19,0,0,0-6.58-1,60.92,60.92,0,0,0-9.83.73,45,45,0,0,0-7.28,1.71l-1.92-12a62.84,62.84,0,0,1,8.55-2A69.69,69.69,0,0,1,236.44,355.55Zm1.28,55.24a59.65,59.65,0,0,0,10.85-.74V393.64a31.23,31.23,0,0,0-3.7-.74,36.29,36.29,0,0,0-5.36-.37,37.48,37.48,0,0,0-5.17.37,16.7,16.7,0,0,0-4.72,1.35,8.47,8.47,0,0,0-3.38,2.75,7.47,7.47,0,0,0-1.28,4.47q0,5.27,3.45,7.29T237.71,410.79Z" transform="translate(39.68)"/><path class="cls-1" d="M131.75,0a130,130,0,1,0,130,130A130.15,130.15,0,0,0,131.75,0Zm83.83,182.89-2.09-56.52a12.59,12.59,0,0,0,3.56-23l14.36-40.09a119.76,119.76,0,0,1-5,140.44l-5-5.81A9.71,9.71,0,0,0,215.58,182.89Zm-63.4-14.15,50.73-44.59a12.54,12.54,0,0,0,5.58,2.41l2.09,56.52a9.76,9.76,0,0,0-5.9,5.08l-49.81-9.54c0-.23,0-0.46,0-0.69A16.84,16.84,0,0,0,152.19,168.74Zm-9.27,57.09-22.06,23.69a119.46,119.46,0,0,1-55.11-19.17V209.78a12.18,12.18,0,0,0,2.78-.85A12.71,12.71,0,0,0,76.11,197L123,185.87a16.76,16.76,0,0,0,17.52,8.79L146,212.4A9.68,9.68,0,0,0,142.92,225.82ZM11.75,130a120.3,120.3,0,0,1,1.64-19.8l12.75,11.33a16.91,16.91,0,0,0,3.12,22.09L16.58,163.71A119.64,119.64,0,0,1,11.75,130Zm17.11,4.16a12,12,0,1,1,5.75,7.12A12,12,0,0,1,28.86,134.16ZM56.3,54.34a4.73,4.73,0,1,1-4.73,4.73A4.73,4.73,0,0,1,56.3,54.34Zm0.4,14.43a9.67,9.67,0,0,0,6.15-2.54L94.46,86.49A12.69,12.69,0,0,0,94.24,95l-41.8,23.9a16.54,16.54,0,0,0-6-3.95Zm87.39-24a9.66,9.66,0,0,0,7.4.79l0.36-.12,10.26,15.48a16.9,16.9,0,0,0-1.53,23.59l-30.86,35.57-0.17-.1a12.52,12.52,0,0,0-8.65-1.26l-7.48-17.3c0.34-.24.67-0.49,1-0.76A12.62,12.62,0,0,0,98,81.46c-0.31.26-.59,0.54-0.87,0.82L65.56,62A9.68,9.68,0,0,0,66,59.24l74.2-18.33A9.66,9.66,0,0,0,144.09,44.76Zm3.32-13.07a4.73,4.73,0,1,1-3.2,5.87A4.73,4.73,0,0,1,147.41,31.69Zm10.67,1.79a9.67,9.67,0,0,0-1.91-3.53l10.31-14.81a120.1,120.1,0,0,1,49.26,29.25L185.55,61.63a16.74,16.74,0,0,0-19.28-3.49L156,42.67A9.72,9.72,0,0,0,158.07,33.48Zm54.28,68.17a12.24,12.24,0,0,0-8.29,1.67L186.59,84.17a17.12,17.12,0,0,0,1.74-2.58,16.87,16.87,0,0,0,.17-15.89l30.84-17.64a120.94,120.94,0,0,1,8.56,10.2Zm5.8,12.47a7.62,7.62,0,1,1-7.62-7.62A7.63,7.63,0,0,1,218.16,114.12ZM176.82,84.95a12,12,0,1,1,8.09-14.84A11.89,11.89,0,0,1,176.82,84.95Zm-55.5,96.18L75,192.12a12.7,12.7,0,0,0-1.3-2.21l43.41-48,0.39,0.24a12.26,12.26,0,0,0,7.29,1.47l5.88,19.06A16.87,16.87,0,0,0,121.32,181.12Zm4.34-42.77a7.62,7.62,0,0,1-4.3-14.61,7.57,7.57,0,0,1,5.8.62A7.62,7.62,0,0,1,125.66,138.35Zm-14.5-41.5a7.62,7.62,0,1,1,2.65-5.19A7.62,7.62,0,0,1,111.16,96.85ZM56.59,126a17.12,17.12,0,0,0-1.2-3L96.73,99.36a12.54,12.54,0,0,0,12.09,4l7.48,17.31a12.58,12.58,0,0,0-2.94,17.85L70,186.57a12.74,12.74,0,0,0-1.92-.94,12.54,12.54,0,0,0-6.21-.72L48.2,145.79A17,17,0,0,0,56.59,126Zm3.84,64.46a7.62,7.62,0,1,1-4,4.23A7.6,7.6,0,0,1,60.42,190.46Zm77.54-.59a12,12,0,1,1,12-12A12,12,0,0,1,138,189.87ZM148.89,165a16.6,16.6,0,0,0-13.48-3.8l-5.88-19.05a12.6,12.6,0,0,0,4-18.78l30.86-35.58c0.32,0.2.64,0.41,1,.59a17,17,0,0,0,17.57-.82l17.47,19.13a12.52,12.52,0,0,0-.76,13.71Zm64.55,22.66a4.73,4.73,0,1,1-4.73,4.73A4.73,4.73,0,0,1,213.43,187.64ZM161.37,13.7l-9.32,13.39a9.7,9.7,0,0,0-13,9L64.82,54.38a9.73,9.73,0,0,0-8.52-5H56.07l-2.91-10A119.91,119.91,0,0,1,161.37,13.7ZM49,43.14l2.23,7.62a9.7,9.7,0,0,0,.55,16.93l-10.29,46.2a16.83,16.83,0,0,0-12.07,3.9l-15-13.3A120,120,0,0,1,49,43.14ZM18.45,169.9l15-23.61a16.73,16.73,0,0,0,10,1.14l13.64,39.13a12.6,12.6,0,0,0-5.09,16,12.29,12.29,0,0,0,6.87,6.64,6.06,6.06,0,0,0,1.87.58v17.1A122.55,122.55,0,0,1,18.45,169.9Zm109,80,19.15-20.69a9.68,9.68,0,0,0,11.83-2.17l23.76,11.82A119.28,119.28,0,0,1,131.75,250C130.3,250,128.87,250,127.43,249.91Zm19-29.28a4.73,4.73,0,1,1,4.73,4.73A4.73,4.73,0,0,1,146.4,220.63Zm41.39,15.45-27.13-13.5a9.73,9.73,0,0,0-9.53-11.67l-0.38,0-5.47-17.75a17,17,0,0,0,8.66-9.66l49.81,9.54a9.69,9.69,0,0,0,13.88,8.07l5.55,6.5A120.79,120.79,0,0,1,187.79,236.08Z" transform="translate(39.68)"/></svg>